<svg xmlns="http://www.w3.org/2000/svg" viewBox="0 0 512 512">
  <defs>
    <linearGradient id="metal" x1="0%" y1="0%" x2="100%" y2="100%">
      <stop offset="0%" stop-color="#f8fafc"/>
      <stop offset="25%" stop-color="#94a3b8"/>
      <stop offset="50%" stop-color="#e2e8f0"/>
      <stop offset="75%" stop-color="#475569"/>
      <stop offset="100%" stop-color="#cbd5e1"/>
    </linearGradient>
    <linearGradient id="metal-edge" x1="0%" y1="100%" x2="100%" y2="0%">
      <stop offset="0%" stop-color="#ffffff"/>
      <stop offset="100%" stop-color="#1e293b"/>
    </linearGradient>
    <filter id="shadow" x="-20%" y="-20%" width="140%" height="140%">
      <feDropShadow dx="0" dy="8" stdDeviation="6" flood-opacity="0.8" flood-color="#000"/>
    </filter>
  </defs>
  <!-- Círculo oscuro de base -->
  <circle cx="256" cy="256" r="240" fill="#1e1e1e" stroke="#333" stroke-width="4"/>
  <!-- Monograma JK Metálico -->
  <g filter="url(#shadow)">
    <path d="M 170 120 L 245 120 L 245 245 L 215 245 L 215 170 C 215 160 210 155 200 155 C 190 155 185 160 185 170 L 185 320 C 185 350 170 370 140 370 C 110 370 95 350 95 320 L 95 270 L 130 270 L 130 325 C 130 345 140 350 155 350 C 170 350 175 345 175 320 L 175 250 L 245 250 L 245 390 L 280 390 L 280 245 L 245 245 L 245 120 Z" fill="url(#metal)" stroke="url(#metal-edge)" stroke-width="2"/>
    <polygon points="240,225 355,110 405,110 290,225" fill="url(#metal)" stroke="url(#metal-edge)" stroke-width="2"/>
    <polygon points="275,225 400,390 350,390 245,260" fill="url(#metal)" stroke="url(#metal-edge)" stroke-width="2"/>
  </g>
</svg>